<svg viewBox="0 -8 512 512" xmlns="http://www.w3.org/2000/svg"><path d="m331 150c0-13.167969-3.457031-26.117188-10.003906-37.457031l-64.996094-112.542969-64.996094 112.542969c-6.546875 11.339843-10.003906 24.289062-10.003906 37.457031 0 41.351562 33.648438 75 75 75s75-33.648438 75-75zm0 0"/><path d="m482 76c-16.5 0-30 13.5-30 30v135c0 11.910156-4.730469 23.332031-13.152344 31.753906l-61.246094 61.246094-21.300781-21 55.128907-55.324219c11.644531-11.703125 11.621093-30.625-.050782-42.296875-11.695312-11.695312-30.660156-11.695312-42.355468 0l-75.175782 75.175782c-13.988281 13.984374-21.847656 32.960937-21.847656 52.746093v152.699219h150v-84.300781l64.5-91.199219 5.101562-7.199219c12.597657-12.300781 20.398438-31.199219 20.398438-51v-156.300781c0-16.5-13.5-30-30-30zm0 0"/><path d="m142.976562 215.375c-11.695312-11.695312-30.65625-11.695312-42.351562 0-11.675781 11.675781-11.699219 30.597656-.050781 42.300781l55.125 55.324219-21.300781 21-61.246094-61.246094c-8.421875-8.421875-13.152344-19.84375-13.152344-31.753906v-135c0-16.5-13.5-30-30-30s-30 13.5-30 30v156.300781c0 19.800781 7.800781 38.699219 20.398438 51l5.101562 7.199219 64.5 91.199219v84.300781h150v-152.699219c0-19.785156-7.859375-38.761719-21.847656-52.75zm0 0"/></svg>