<?xml version="1.0" encoding="iso-8859-1"?>
<!-- Generator: Adobe Illustrator 18.0.0, SVG Export Plug-In . SVG Version: 6.00 Build 0)  -->
<!DOCTYPE svg PUBLIC "-//W3C//DTD SVG 1.1//EN" "http://www.w3.org/Graphics/SVG/1.1/DTD/svg11.dtd">
<svg version="1.1" id="Capa_1" xmlns="http://www.w3.org/2000/svg" xmlns:xlink="http://www.w3.org/1999/xlink" x="0px" y="0px"
	 viewBox="0 0 60 60" style="enable-background:new 0 0 60 60;" xml:space="preserve">
<g>
	<path d="M39.475,10H38V8.471l-1.587-1.15C36.21,7.168,35.903,7,35.5,7C34.673,7,34,7.673,34,8.5s0.673,1.5,1.5,1.5h-3.149
		C32.133,9.544,32,9.039,32,8.5C32,6.57,33.57,5,35.5,5c0.758,0,1.485,0.247,2.103,0.713L38,6.001V1.498C38,0.672,37.328,0,36.502,0
		H34v1c0,2.757-2.243,5-5,5s-5-2.243-5-5V0h-0.502C22.672,0,22,0.672,22,1.498V10h-1.475C19.684,10,19,10.684,19,11.525v2.95
		C19,15.316,19.684,16,20.525,16H22v13h16V16h1.475C40.316,16,41,15.316,41,14.475v-2.95C41,10.684,40.316,10,39.475,10z M28.95,10
		c-0.232-1.14-1.242-2-2.45-2s-2.217,0.86-2.45,2h-2c0.252-2.244,2.139-4,4.449-4s4.197,1.756,4.449,4H28.95z"/>
	<path d="M29,4c1.654,0,3-1.346,3-3V0h-6v1C26,2.654,27.346,4,29,4z"/>
	<path d="M22,52c0,4.411,3.589,8,8,8s8-3.589,8-8V31H22V52z"/>
</g>
<g>
</g>
<g>
</g>
<g>
</g>
<g>
</g>
<g>
</g>
<g>
</g>
<g>
</g>
<g>
</g>
<g>
</g>
<g>
</g>
<g>
</g>
<g>
</g>
<g>
</g>
<g>
</g>
<g>
</g>
</svg>
